# xmcd CD database file
#
# Track frame offsets:
#	150
#	20116
#	38819
#	61326
#	78794
#	95647
#	113316
#	132136
#	147984
#	166792
#	187040
#	206162
#	242843
#	266411
#	286123
#	307828
#
# Disc length: 4291 seconds
#
# Revision: 0
# Processed by: cddbd v1.5.1PL0 Copyright (c) Steve Scherf et al.
# Submitted via: CDex 1.51
#
DISCID=d510c110
DTITLE=Various Artist - The Coffee Lounge Ice Blended
DYEAR=1900
DGENRE=Easy Listening
TTITLE0=Je Te Reve A' Jamais
TTITLE1=Aquarius
TTITLE2=Azul (Swim Into The Blue)
TTITLE3=Five - Four
TTITLE4=Sputnik
TTITLE5=Sueno De Amor
TTITLE6=Brush Song
TTITLE7=Theme from "The Smoking Detective"
TTITLE8=Latin Wave
TTITLE9=Fricaut
TTITLE10=Soul Pop
TTITLE11=Debellam
TTITLE12=Remember Funk
TTITLE13=Tamarindo
TTITLE14=Spirit of Love
TTITLE15=Naibori Away
EXTD=
EXTT0=
EXTT1=
EXTT2=
EXTT3=
EXTT4=
EXTT5=
EXTT6=
EXTT7=
EXTT8=
EXTT9=
EXTT10=
EXTT11=
EXTT12=
EXTT13=
EXTT14=
EXTT15=
PLAYORDER=
